<svg width="34" height="34" viewBox="0 0 34 34" fill="none" xmlns="http://www.w3.org/2000/svg">
<g clip-path="url(#clip0)">
<path d="M34 7.73067V27.4351C34 28.7158 32.963 29.7528 31.6823 29.7528H26.2721V16.6174L17 23.5733L7.72792 16.6174V29.7542H2.31767C2.01319 29.7542 1.71169 29.6942 1.43041 29.5776C1.14912 29.4611 0.893562 29.2902 0.678328 29.0748C0.463094 28.8595 0.292406 28.6038 0.176016 28.3225C0.0596252 28.0411 -0.000185679 27.7396 4.33006e-07 27.4351V7.73067C4.33006e-07 4.86476 3.27108 3.22851 5.56325 4.94834L7.72792 6.57326L17 13.5263L26.2721 6.57042L28.4367 4.94834C30.7275 3.22992 34 4.86476 34 7.73067Z" fill="#F8F8F8"/>
</g>
<defs>
<clipPath id="clip0">
<rect width="34" height="34" fill="white"/>
</clipPath>
</defs>
</svg>
