<svg width="16" height="16" viewBox="0 0 16 16" fill="none" xmlns="http://www.w3.org/2000/svg">
<g clip-path="url(#clip0)">
<path d="M10.9893 7.98384L15.09 4.42117V11.5058L10.9893 7.98384ZM5.70533 8.58717L7.14533 9.83717C7.37133 10.0292 7.666 10.1452 7.988 10.1452H7.99933H7.99867H8.008C8.33067 10.1452 8.62533 10.0285 8.854 9.83517L8.852 9.83651L10.292 8.58651L14.6693 12.3458H1.33L5.70533 8.58717ZM1.324 3.5765H14.6773L8.26333 9.14717C8.19122 9.20421 8.10195 9.23522 8.01 9.23517H8.00067H8.00133H7.992C7.89973 9.23529 7.81015 9.20402 7.738 9.14651L7.73867 9.14717L1.324 3.5765ZM0.91 4.4205L5.01 7.98317L0.91 11.5032V4.4205ZM15.31 2.79317C15.15 2.71317 14.962 2.6665 14.7627 2.6665H1.23933C1.04611 2.66655 0.855537 2.71151 0.682667 2.79784L0.69 2.7945C0.483049 2.89658 0.308765 3.05449 0.186836 3.2504C0.0649071 3.44631 0.000191566 3.67242 0 3.90317L0 12.0178C0.000352936 12.3462 0.130968 12.6611 0.363187 12.8933C0.595405 13.1255 0.91026 13.2562 1.23867 13.2565H14.7607C15.0891 13.2562 15.4039 13.1255 15.6361 12.8933C15.8684 12.6611 15.999 12.3462 15.9993 12.0178V3.90584V3.90317C15.9993 3.4185 15.72 2.9985 15.3133 2.7965L15.306 2.79317H15.31Z" fill="#434343"/>
</g>
<defs>
<clipPath id="clip0">
<rect width="16" height="16" fill="white"/>
</clipPath>
</defs>
</svg>
