<svg width="613" height="170" viewBox="0 0 613 170" fill="none" xmlns="http://www.w3.org/2000/svg">
<rect width="297" height="99" transform="translate(0 18)" fill="white"/>
<path d="M65.8 73.96C63.2933 72.2 60.9467 70.52 58.76 68.92C56.5733 67.2667 54.44 65.64 52.36 64.04C50.28 62.44 48.2 60.8133 46.12 59.16C44.0933 57.5067 41.9867 55.7467 39.8 53.88C37.6133 55.7467 35.48 57.5067 33.4 59.16C31.3733 60.8133 29.32 62.44 27.24 64.04C25.16 65.64 23 67.2667 20.76 68.92C18.5733 70.52 16.2533 72.2 13.8 73.96L7.08 66.52C11.0267 63.5867 15.0267 60.52 19.08 57.32C23.1333 54.0667 26.7867 50.9467 30.04 47.96C31.3733 46.7333 32.3867 45.5067 33.08 44.28C33.7733 43 34.12 41.4533 34.12 39.64V30.52H45.48V39.56C45.48 41.3733 45.8267 42.92 46.52 44.2C47.2133 45.48 48.2267 46.7333 49.56 47.96C52.8133 50.9467 56.4667 54.0667 60.52 57.32C64.5733 60.52 68.5733 63.5867 72.52 66.52L65.8 73.96ZM74.6 95.08H5V85.32H34.2V68.44H45.4V85.32H74.6V95.08ZM146.994 72.36H77.3938V63.56H106.594V59.88H83.9538V29.08H140.434V37.88H94.9938V40.84H139.634V48.12H94.9938V51.08H141.634V59.88H117.794V63.56H146.994V72.36ZM126.674 75.32C131.474 75.32 135.314 76.3867 138.194 78.52C141.127 80.6533 142.594 83.6133 142.594 87.4C142.594 91.1867 141.127 94.1467 138.194 96.28C135.314 98.4133 131.474 99.48 126.674 99.48H97.7138C92.9138 99.48 89.0471 98.4133 86.1138 96.28C83.2338 94.1467 81.7938 91.1867 81.7938 87.4C81.7938 83.6133 83.2338 80.6533 86.1138 78.52C89.0471 76.3867 92.9138 75.32 97.7138 75.32H126.674ZM125.474 90.36C127.394 90.36 128.887 90.0933 129.954 89.56C131.02 89.08 131.554 88.36 131.554 87.4C131.554 86.44 131.02 85.72 129.954 85.24C128.887 84.7067 127.394 84.44 125.474 84.44H98.9138C96.9938 84.44 95.5004 84.7067 94.4338 85.24C93.3671 85.72 92.8338 86.44 92.8338 87.4C92.8338 88.36 93.3671 89.08 94.4338 89.56C95.5004 90.0933 96.9938 90.36 98.9138 90.36H125.474ZM193.068 72.52C193.068 75.2933 192.588 77.8533 191.628 80.2C190.668 82.4933 189.281 84.4667 187.468 86.12C185.708 87.7733 183.574 89.0533 181.068 89.96C178.561 90.8667 175.761 91.32 172.668 91.32C169.574 91.32 166.774 90.8667 164.268 89.96C161.761 89.0533 159.601 87.7733 157.788 86.12C156.028 84.4667 154.668 82.4933 153.708 80.2C152.748 77.8533 152.268 75.2933 152.268 72.52V68.68C152.268 65.9067 152.748 63.3733 153.708 61.08C154.668 58.7333 156.028 56.7333 157.788 55.08C159.601 53.4267 161.761 52.1467 164.268 51.24C166.774 50.3333 169.574 49.88 172.668 49.88C175.761 49.88 178.561 50.3333 181.068 51.24C183.574 52.1467 185.708 53.4267 187.468 55.08C189.281 56.7333 190.668 58.7333 191.628 61.08C192.588 63.3733 193.068 65.9067 193.068 68.68V72.52ZM210.988 99.8H199.948V29.16H210.988V58.2H220.588V68.76H210.988V99.8ZM195.308 46.84H149.868V37.24H167.068V28.44H178.268V37.24H195.308V46.84ZM182.028 69.4C182.028 66.2 181.254 63.6933 179.708 61.88C178.161 60.0667 175.814 59.16 172.668 59.16C169.521 59.16 167.174 60.0667 165.628 61.88C164.081 63.6933 163.308 66.2 163.308 69.4V71.8C163.308 75 164.081 77.5067 165.628 79.32C167.174 81.1333 169.521 82.04 172.668 82.04C175.814 82.04 178.161 81.1333 179.708 79.32C181.254 77.5067 182.028 75 182.028 71.8V69.4ZM287.141 99.16H229.141V76.52H240.181V89.4H287.141V99.16ZM286.021 55.32H228.341V28.6H239.381V45.72H286.021V55.32ZM291.781 71.72H222.181V62.12H291.781V71.72Z" fill="#F7C873"/>
<path d="M373.2 102.8H362.16V32.16H373.2V102.8ZM356.08 90.8H312.24V35.2H351.12V44.96H323.28V81.04H356.08V90.8ZM417.274 92.56C414.607 89.2533 412.154 86.16 409.914 83.28C407.674 80.3467 405.54 77.52 403.514 74.8C402.98 74.1067 402.474 73.44 401.994 72.8C401.567 72.1067 401.167 71.3867 400.794 70.64C399.994 72.1333 399.087 73.52 398.074 74.8C395.994 77.52 393.594 80.5333 390.874 83.84C388.154 87.1467 385.434 90.4267 382.714 93.68L375.194 85.76C378.34 82.0267 381.327 78.32 384.154 74.64C386.98 70.9067 389.594 67.3333 391.994 63.92C393.007 62.48 393.78 60.88 394.314 59.12C394.847 57.36 395.114 55.3867 395.114 53.2V44.96H379.354V35.2H421.514V44.96H406.314V53.2C406.314 55.3867 406.58 57.36 407.114 59.12C407.647 60.88 408.394 62.48 409.354 63.92C411.647 67.3867 413.994 70.8533 416.394 74.32C418.794 77.7867 421.514 81.36 424.554 85.04L417.274 92.56ZM438.394 102.8H427.354V32.16H438.394V56.4H447.994V66.96H438.394V102.8ZM511.587 102.8H500.547V32.16H511.587V102.8ZM491.347 74.72C491.347 77.4933 490.841 80.0533 489.827 82.4C488.867 84.6933 487.481 86.6667 485.667 88.32C483.854 89.9733 481.667 91.2533 479.107 92.16C476.547 93.0667 473.694 93.52 470.547 93.52C467.401 93.52 464.547 93.0667 461.987 92.16C459.427 91.2533 457.241 89.9733 455.427 88.32C453.614 86.6667 452.201 84.6933 451.187 82.4C450.227 80.0533 449.747 77.4933 449.747 74.72V52C449.747 49.2267 450.227 46.6933 451.187 44.4C452.201 42.0533 453.614 40.0533 455.427 38.4C457.241 36.7467 459.427 35.4667 461.987 34.56C464.547 33.6533 467.401 33.2 470.547 33.2C473.694 33.2 476.547 33.6533 479.107 34.56C481.667 35.4667 483.854 36.7467 485.667 38.4C487.481 40.0533 488.867 42.0533 489.827 44.4C490.841 46.6933 491.347 49.2267 491.347 52V74.72ZM460.787 73.52C460.787 76.72 461.614 79.2267 463.267 81.04C464.921 82.8533 467.347 83.76 470.547 83.76C473.747 83.76 476.174 82.8533 477.827 81.04C479.481 79.2267 480.307 76.72 480.307 73.52V53.2C480.307 50 479.481 47.4933 477.827 45.68C476.174 43.8667 473.747 42.96 470.547 42.96C467.347 42.96 464.921 43.8667 463.267 45.68C461.614 47.4933 460.787 50 460.787 53.2V73.52ZM580.781 102.8H569.741V63.44H549.101V52.88H569.741V32.16H580.781V102.8ZM562.861 90.4H519.421V34.4H530.461V80.64H562.861V90.4Z" fill="#434343"/>
<path d="M399.984 142.04H393.36V119.096H399.984V142.04ZM399.984 161.096H366.864V143.672H399.984V161.096ZM393.36 155.336V149.432H373.488V155.336H393.36ZM386.64 128.36C386.64 129.384 386.56 130.264 386.4 131C386.272 131.704 386.032 132.328 385.68 132.872C385.36 133.384 384.912 133.832 384.336 134.216C383.76 134.6 383.04 134.984 382.176 135.368C379.392 136.552 376.416 137.72 373.248 138.872C370.112 140.024 367.04 141.16 364.032 142.28L361.728 137.192C364.672 136.04 367.488 134.936 370.176 133.88C372.896 132.792 375.488 131.704 377.952 130.616C378.688 130.296 379.216 129.88 379.536 129.368C379.856 128.856 380.016 128.184 380.016 127.352V125.96H363.792V120.2H386.64V128.36ZM420.572 136.856V126.2H409.772V136.856H420.572ZM427.196 142.616H403.148V120.44H427.196V142.616ZM440.06 149.432H433.436V119.096H440.06V149.432ZM441.068 161.096H406.94V146.12H413.564V155.24H441.068V161.096ZM466.84 155.336C465.24 153.352 463.72 151.496 462.28 149.768C460.872 148.008 459.56 146.312 458.344 144.68C458.024 144.264 457.72 143.864 457.432 143.48C457.176 143.064 456.936 142.632 456.712 142.184C456.232 143.08 455.688 143.912 455.08 144.68C453.832 146.312 452.344 148.12 450.616 150.104C448.92 152.088 447.256 154.056 445.624 156.008L441.112 151.256C443 149.016 444.824 146.792 446.584 144.584C448.376 142.344 449.992 140.2 451.432 138.152C452.04 137.288 452.504 136.328 452.824 135.272C453.144 134.216 453.304 133.032 453.304 131.72V126.776H443.608V120.92H469.384V126.776H460.024V131.72C460.024 133.032 460.184 134.216 460.504 135.272C460.824 136.328 461.272 137.288 461.848 138.152C463.224 140.232 464.664 142.312 466.168 144.392C467.704 146.472 469.384 148.616 471.208 150.824L466.84 155.336ZM480.472 161.48H473.848V119.096H480.472V161.48ZM520.213 161.096H487.093V142.952H493.717V146.504H513.589V142.952H520.213V161.096ZM507.829 134.072C507.221 135.384 506.341 136.536 505.189 137.528C504.069 138.488 502.693 139.256 501.061 139.832C499.461 140.408 497.653 140.696 495.637 140.696C493.621 140.696 491.797 140.408 490.165 139.832C488.565 139.256 487.189 138.488 486.037 137.528C484.917 136.536 484.037 135.384 483.397 134.072C482.789 132.728 482.485 131.304 482.485 129.8C482.485 128.296 482.789 126.888 483.397 125.576C484.037 124.232 484.917 123.08 486.037 122.12C487.189 121.128 488.565 120.344 490.165 119.768C491.797 119.192 493.621 118.904 495.637 118.904C497.653 118.904 499.461 119.192 501.061 119.768C502.693 120.344 504.069 121.128 505.189 122.12C506.341 123.08 507.221 124.232 507.829 125.576C508.469 126.888 508.789 128.296 508.789 129.8C508.789 131.304 508.469 132.728 507.829 134.072ZM520.213 141.368H513.589V119.096H520.213V141.368ZM500.389 133.64C501.573 132.68 502.165 131.4 502.165 129.8C502.165 128.2 501.573 126.936 500.389 126.008C499.237 125.048 497.653 124.568 495.637 124.568C493.621 124.568 492.021 125.048 490.837 126.008C489.685 126.936 489.109 128.2 489.109 129.8C489.109 131.4 489.685 132.68 490.837 133.64C492.021 134.568 493.621 135.032 495.637 135.032C497.653 135.032 499.237 134.568 500.389 133.64ZM513.589 155.336V152.024H493.717V155.336H513.589ZM560.625 161.48H554.001V119.096H560.625V161.48ZM550.353 154.04H523.809V120.44H530.433V148.184H550.353V154.04ZM588.989 154.28H563.165V120.92H585.629V126.776H569.789V148.424H588.989V154.28ZM598.301 161.48H591.677V119.096H598.301V133.64H604.061V139.976H598.301V161.48ZM610.442 160.616H602.954V153.08H610.442V160.616Z" fill="#434343"/>
<path d="M15.0219 1.214V7.976C15.0219 9.376 14.5785 10.4073 13.6919 11.07C13.0292 11.574 12.2079 11.826 11.2279 11.826C10.2572 11.826 9.43587 11.574 8.76387 11.07C7.88653 10.4167 7.44787 9.38533 7.44787 7.976V1.214H8.97387V7.906C8.97387 8.662 9.1652 9.25933 9.54787 9.698C9.93987 10.1647 10.4999 10.398 11.2279 10.398C11.9559 10.398 12.5252 10.1647 12.9359 9.698C13.3092 9.26867 13.4959 8.67133 13.4959 7.906V1.214H15.0219ZM32.4594 11.602H30.9194V1.242H32.4594V11.602ZM52.5722 0.906L48.5262 12.666H47.0562L51.1022 0.906H52.5722ZM74.9337 1.214V7.976C74.9337 9.376 74.4903 10.4073 73.6037 11.07C72.941 11.574 72.1197 11.826 71.1397 11.826C70.169 11.826 69.3477 11.574 68.6757 11.07C67.7983 10.4167 67.3597 9.38533 67.3597 7.976V1.214H68.8857V7.906C68.8857 8.662 69.077 9.25933 69.4597 9.698C69.8517 10.1647 70.4117 10.398 71.1397 10.398C71.8677 10.398 72.437 10.1647 72.8477 9.698C73.221 9.26867 73.4077 8.67133 73.4077 7.906V1.214H74.9337ZM99.3852 11.602H97.5092L94.6532 7.374L91.7412 11.602H89.9212L93.7572 6.156L90.2852 1.242H92.1192L94.7092 4.966L97.3272 1.242H99.1192L95.6332 6.156L99.3852 11.602ZM133.213 10.16H133.717C136.554 10.16 137.973 8.89067 137.973 6.352C137.973 3.89733 136.76 2.67 134.333 2.67H133.213V10.16ZM131.687 1.242H134.333C136.088 1.242 137.408 1.72733 138.295 2.698C139.088 3.57533 139.485 4.80733 139.485 6.394C139.485 8.186 138.916 9.52533 137.777 10.412C136.778 11.2053 135.392 11.602 133.619 11.602H131.687V1.242ZM160.647 11.658H155.327V1.214H160.493V2.642H156.853V5.554H160.297V6.982H156.853V10.216H160.647V11.658ZM181.17 2.824C180.703 2.59067 180.078 2.474 179.294 2.474C178.081 2.474 177.474 2.922 177.474 3.818C177.474 4.24733 177.852 4.7 178.608 5.176C179.233 5.57733 179.723 5.89467 180.078 6.128C180.433 6.36133 180.647 6.51533 180.722 6.59C181.478 7.25267 181.856 8.018 181.856 8.886C181.856 9.85667 181.483 10.6173 180.736 11.168C180.101 11.6347 179.341 11.868 178.454 11.868C177.567 11.868 176.755 11.7047 176.018 11.378L176.2 9.824C176.9 10.216 177.67 10.412 178.51 10.412C179.751 10.412 180.372 9.866 180.372 8.774C180.372 8.34467 179.994 7.878 179.238 7.374C178.557 6.91667 178.039 6.56667 177.684 6.324C177.339 6.08133 177.152 5.95067 177.124 5.932C176.377 5.288 176.004 4.58333 176.004 3.818C176.004 2.95 176.34 2.25467 177.012 1.732C177.619 1.26533 178.384 1.032 179.308 1.032C180.073 1.032 180.778 1.15333 181.422 1.396L181.17 2.824ZM198.837 11.602H197.297V1.242H198.837V11.602ZM222.87 5.736V11.154C221.871 11.574 220.779 11.784 219.594 11.784C217.988 11.784 216.71 11.2893 215.758 10.3C214.824 9.32933 214.358 8.03667 214.358 6.422C214.358 4.80733 214.838 3.51467 215.8 2.544C216.761 1.55467 218.03 1.06 219.608 1.06C220.821 1.06 221.778 1.228 222.478 1.564L222.296 3.048C221.614 2.67467 220.718 2.488 219.608 2.488C218.46 2.488 217.55 2.85667 216.878 3.594C216.224 4.30333 215.898 5.246 215.898 6.422C215.898 7.60733 216.215 8.55467 216.85 9.264C217.503 9.992 218.418 10.356 219.594 10.356C220.35 10.356 220.924 10.2813 221.316 10.132V7.164H219.16V5.736H222.87ZM246.685 11.658H245.005L240.525 3.832V11.658H239.013V1.214H240.623L245.173 9.166V1.214H246.685V11.658ZM268.015 11.658H262.695V1.214H267.861V2.642H264.221V5.554H267.665V6.982H264.221V10.216H268.015V11.658ZM285.36 5.526H286.074C286.69 5.526 287.175 5.414 287.53 5.19C287.959 4.938 288.174 4.55533 288.174 4.042C288.174 3.43533 287.992 3.03867 287.628 2.852C287.376 2.73067 286.863 2.67 286.088 2.67H285.36V5.526ZM290.568 11.602H288.958L287.446 8.102C287.241 7.626 287.054 7.32733 286.886 7.206C286.681 7.04733 286.354 6.968 285.906 6.968H285.36V11.602H283.862V1.242H286.606C288.659 1.242 289.686 2.17533 289.686 4.042C289.686 4.658 289.495 5.17133 289.112 5.582C288.729 5.99267 288.23 6.25867 287.614 6.38C288.137 6.48267 288.524 6.828 288.776 7.416L290.568 11.602Z" fill="#434343"/>
</svg>
