<svg width="1793" height="280" viewBox="0 0 1793 280" fill="none" xmlns="http://www.w3.org/2000/svg">
<path d="M764.568 40.28H738.744V6.92H761.592V12.776H745.368V34.424H764.568V40.28ZM775.32 47.48H768.696V26.024H756.552V19.688H768.696V5.096H775.32V47.48ZM837.62 47.576H804.308V35.144H830.036V33.032H804.26V27.56H836.66V39.992H810.932V42.104H837.62V47.576ZM824.276 19.4C823.7 20.648 822.852 21.752 821.732 22.712C820.644 23.64 819.3 24.376 817.7 24.92C816.132 25.464 814.372 25.736 812.42 25.736C810.436 25.736 808.66 25.464 807.092 24.92C805.524 24.376 804.18 23.64 803.06 22.712C801.972 21.752 801.124 20.648 800.516 19.4C799.94 18.12 799.652 16.76 799.652 15.32C799.652 13.88 799.94 12.536 800.516 11.288C801.124 10.008 801.972 8.904 803.06 7.976C804.18 7.016 805.524 6.264 807.092 5.72C808.66 5.176 810.436 4.904 812.42 4.904C814.372 4.904 816.132 5.176 817.7 5.72C819.3 6.264 820.644 7.016 821.732 7.976C822.852 8.904 823.7 10.008 824.276 11.288C824.884 12.536 825.188 13.88 825.188 15.32C825.188 16.76 824.884 18.12 824.276 19.4ZM836.66 26.168H830.036V5.096H836.66V12.488H842.036V18.584H836.66V26.168ZM816.932 18.872C818.02 18.008 818.564 16.824 818.564 15.32C818.564 13.816 818.02 12.632 816.932 11.768C815.844 10.904 814.34 10.472 812.42 10.472C810.5 10.472 808.996 10.904 807.908 11.768C806.82 12.632 806.276 13.816 806.276 15.32C806.276 16.824 806.82 18.008 807.908 18.872C808.996 19.736 810.5 20.168 812.42 20.168C814.34 20.168 815.844 19.736 816.932 18.872ZM889.073 44.648H847.313V38.792H861.569V23.96H868.289V38.792H889.073V44.648ZM884.945 32.696H878.321V12.488H850.961V6.632H884.945V32.696ZM950.365 47.096H914.845V41.336H921.229V35.432H915.565V29.672H949.645V35.432H943.981V41.336H950.365V47.096ZM935.965 27.224C934.045 25.72 932.269 24.296 930.637 22.952C929.037 21.608 927.357 20.12 925.597 18.488C923.773 20.152 921.949 21.768 920.125 23.336C918.333 24.872 916.477 26.424 914.557 27.992L910.573 23.432C912.429 21.832 914.157 20.328 915.757 18.92C917.389 17.48 918.989 16.04 920.557 14.6C921.101 14.12 921.517 13.528 921.805 12.824C922.093 12.088 922.237 11.352 922.237 10.616V5.72H928.957V10.616C928.957 11.352 929.101 12.088 929.389 12.824C929.677 13.528 930.093 14.12 930.637 14.6C931.405 15.304 932.125 15.976 932.797 16.616C933.501 17.224 934.205 17.848 934.909 18.488C935.613 19.128 936.349 19.784 937.117 20.456C937.917 21.128 938.797 21.864 939.757 22.664L935.965 27.224ZM949.453 28.04H942.829V5.096H949.453V28.04ZM937.357 41.336V35.432H927.853V41.336H937.357ZM985.833 40.28H960.009V6.92H982.473V12.776H966.633V34.424H985.833V40.28ZM995.145 47.48H988.521V5.096H995.145V19.64H1000.91V25.976H995.145V47.48ZM1044.97 35.432H1038.34V25.4H1031.62V29.384H1008.05V6.44H1031.62V9.8H1038.34V5.096H1044.97V35.432ZM1045.97 47.096H1011.85V32.12H1018.47V41.24H1045.97V47.096ZM1025 23.624V12.2H1014.68V23.624H1025ZM1038.34 19.496V15.704H1031.62V19.496H1038.34ZM1058.74 52.472H1053.46L1055.38 39.08H1063.01L1058.74 52.472Z" fill="#F7C873"/>
<g clip-path="url(#clip0)">
<rect width="1800" height="250" transform="translate(0 30)" fill="#F7C873"/>
<path d="M764.568 42.28H738.744V8.92H761.592V14.776H745.368V36.424H764.568V42.28ZM775.32 49.48H768.696V28.024H756.552V21.688H768.696V7.096H775.32V49.48ZM837.62 49.576H804.308V37.144H830.036V35.032H804.26V29.56H836.66V41.992H810.932V44.104H837.62V49.576ZM824.276 21.4C823.7 22.648 822.852 23.752 821.732 24.712C820.644 25.64 819.3 26.376 817.7 26.92C816.132 27.464 814.372 27.736 812.42 27.736C810.436 27.736 808.66 27.464 807.092 26.92C805.524 26.376 804.18 25.64 803.06 24.712C801.972 23.752 801.124 22.648 800.516 21.4C799.94 20.12 799.652 18.76 799.652 17.32C799.652 15.88 799.94 14.536 800.516 13.288C801.124 12.008 801.972 10.904 803.06 9.976C804.18 9.016 805.524 8.264 807.092 7.72C808.66 7.176 810.436 6.904 812.42 6.904C814.372 6.904 816.132 7.176 817.7 7.72C819.3 8.264 820.644 9.016 821.732 9.976C822.852 10.904 823.7 12.008 824.276 13.288C824.884 14.536 825.188 15.88 825.188 17.32C825.188 18.76 824.884 20.12 824.276 21.4ZM836.66 28.168H830.036V7.096H836.66V14.488H842.036V20.584H836.66V28.168ZM816.932 20.872C818.02 20.008 818.564 18.824 818.564 17.32C818.564 15.816 818.02 14.632 816.932 13.768C815.844 12.904 814.34 12.472 812.42 12.472C810.5 12.472 808.996 12.904 807.908 13.768C806.82 14.632 806.276 15.816 806.276 17.32C806.276 18.824 806.82 20.008 807.908 20.872C808.996 21.736 810.5 22.168 812.42 22.168C814.34 22.168 815.844 21.736 816.932 20.872ZM889.073 46.648H847.313V40.792H861.569V25.96H868.289V40.792H889.073V46.648ZM884.945 34.696H878.321V14.488H850.961V8.632H884.945V34.696ZM950.365 49.096H914.845V43.336H921.229V37.432H915.565V31.672H949.645V37.432H943.981V43.336H950.365V49.096ZM935.965 29.224C934.045 27.72 932.269 26.296 930.637 24.952C929.037 23.608 927.357 22.12 925.597 20.488C923.773 22.152 921.949 23.768 920.125 25.336C918.333 26.872 916.477 28.424 914.557 29.992L910.573 25.432C912.429 23.832 914.157 22.328 915.757 20.92C917.389 19.48 918.989 18.04 920.557 16.6C921.101 16.12 921.517 15.528 921.805 14.824C922.093 14.088 922.237 13.352 922.237 12.616V7.72H928.957V12.616C928.957 13.352 929.101 14.088 929.389 14.824C929.677 15.528 930.093 16.12 930.637 16.6C931.405 17.304 932.125 17.976 932.797 18.616C933.501 19.224 934.205 19.848 934.909 20.488C935.613 21.128 936.349 21.784 937.117 22.456C937.917 23.128 938.797 23.864 939.757 24.664L935.965 29.224ZM949.453 30.04H942.829V7.096H949.453V30.04ZM937.357 43.336V37.432H927.853V43.336H937.357ZM985.833 42.28H960.009V8.92H982.473V14.776H966.633V36.424H985.833V42.28ZM995.145 49.48H988.521V7.096H995.145V21.64H1000.91V27.976H995.145V49.48ZM1044.97 37.432H1038.34V27.4H1031.62V31.384H1008.05V8.44H1031.62V11.8H1038.34V7.096H1044.97V37.432ZM1045.97 49.096H1011.85V34.12H1018.47V43.24H1045.97V49.096ZM1025 25.624V14.2H1014.68V25.624H1025ZM1038.34 21.496V17.704H1031.62V21.496H1038.34ZM1058.74 54.472H1053.46L1055.38 41.08H1063.01L1058.74 54.472Z" fill="#F8F8F8"/>
</g>
<defs>
<clipPath id="clip0">
<rect width="1800" height="250" fill="white" transform="translate(0 30)"/>
</clipPath>
</defs>
</svg>
