<svg width="27" height="27" viewBox="0 0 27 27" fill="none" xmlns="http://www.w3.org/2000/svg">
<path d="M15.156 0.999933C14.859 0.98376 14.5617 1.02623 14.281 1.12493C14.0137 1.21433 13.7666 1.35578 13.5542 1.54111C13.3418 1.72643 13.1681 1.95198 13.0433 2.20474C12.9184 2.45751 12.8449 2.73248 12.8268 3.01382C12.8087 3.29515 12.8465 3.57728 12.938 3.84393L13.844 6.49993L8.71903 8.21893L7.87503 5.65593C7.78563 5.38857 7.64419 5.14155 7.45886 4.92911C7.27353 4.71668 7.04798 4.54303 6.79522 4.41818C6.54246 4.29333 6.26748 4.21976 5.98615 4.20169C5.70481 4.18363 5.42268 4.22144 5.15603 4.31293C4.02303 4.69093 3.40203 5.90293 3.78103 7.03093L4.62503 9.56193L1.96903 10.4689C0.839031 10.8479 0.246031 12.0889 0.625031 13.2189C0.714331 13.4864 0.8557 13.7335 1.04098 13.9461C1.22627 14.1586 1.4518 14.3324 1.70458 14.4573C1.95735 14.5822 2.23236 14.6559 2.51374 14.674C2.79513 14.6922 3.07731 14.6544 3.34403 14.5629L6.00003 13.6879L7.71903 18.7809L5.15603 19.6249C4.88867 19.7143 4.64165 19.8558 4.42921 20.0411C4.21678 20.2264 4.04313 20.452 3.91828 20.7047C3.79343 20.9575 3.71986 21.2325 3.70179 21.5138C3.68373 21.7952 3.72153 22.0773 3.81303 22.3439C4.19103 23.4769 5.40303 24.0979 6.53103 23.7189L9.06203 22.8749L9.96903 25.5309C10.348 26.6609 11.589 27.2539 12.719 26.8749C12.9865 26.7856 13.2336 26.6443 13.4462 26.459C13.6587 26.2737 13.8325 26.0482 13.9574 25.7954C14.0823 25.5426 14.156 25.2676 14.1741 24.9862C14.1923 24.7048 14.1545 24.4226 14.063 24.1559L13.188 21.4999L18.281 19.7809L19.125 22.3439C19.2144 22.6113 19.3559 22.8583 19.5412 23.0708C19.7265 23.2832 19.9521 23.4568 20.2048 23.5817C20.4576 23.7065 20.7326 23.7801 21.0139 23.7982C21.2952 23.8162 21.5774 23.7784 21.844 23.6869C22.977 23.3089 23.598 22.0969 23.219 20.9689L22.375 18.4369L25.031 17.5309C26.161 17.1519 26.754 15.9109 26.375 14.7809C26.2856 14.5136 26.1442 14.2665 25.9589 14.0541C25.7735 13.8417 25.548 13.668 25.2952 13.5432C25.0425 13.4183 24.7675 13.3448 24.4861 13.3267C24.2048 13.3086 23.9227 13.3464 23.656 13.4379L21 14.3119L19.281 9.21893L21.844 8.37493C22.1114 8.28553 22.3584 8.14409 22.5709 7.95876C22.7833 7.77343 22.9569 7.54788 23.0818 7.29512C23.2066 7.04236 23.2802 6.76738 23.2983 6.48605C23.3163 6.20471 23.2785 5.92259 23.187 5.65593C22.809 4.52693 21.597 3.90193 20.469 4.28093L17.937 5.12493L17.031 2.46893C16.8975 2.06688 16.6484 1.71311 16.3149 1.45184C15.9815 1.19057 15.5784 1.03338 15.156 0.999933ZM15.188 10.5939L16.906 15.6879L11.813 17.4059L10.093 12.3129L15.188 10.5939Z" fill="#F8F8F8"/>
</svg>
