<svg width="65" height="95" viewBox="0 0 65 95" fill="none" xmlns="http://www.w3.org/2000/svg">
<path d="M36.918 50.96L39.186 50.33C40.446 50.33 41.076 50.96 41.076 52.22C41.076 53.144 40.509 53.795 39.375 54.173C38.241 54.551 37.422 54.74 36.918 54.74C34.902 54.74 33.369 53.48 32.319 50.96C31.731 49.574 31.227 46.655 30.807 42.203C30.429 37.751 30.051 33.74 29.673 30.17C29.337 26.558 28.896 24.752 28.35 24.752C27.846 24.752 27.216 27.671 26.46 33.509C26.292 34.895 26.145 36.092 26.019 37.1C25.935 38.066 25.788 39.305 25.578 40.817C25.41 42.287 25.284 43.358 25.2 44.03C24.864 46.844 24.339 48.923 23.625 50.267C22.911 51.569 21.756 52.22 20.16 52.22C18.144 52.22 16.611 50.96 15.561 48.44C14.931 47.054 14.07 44.198 12.978 39.872C11.928 35.504 10.941 31.577 10.017 28.091C9.135 24.605 8.526 22.862 8.19 22.862C7.644 22.862 7.182 26.978 6.804 35.21C6.468 43.4 6.3 49.721 6.3 54.173C6.3 55.391 5.67 56 4.41 56C3.738 56 3.255 55.811 2.961 55.433C2.667 55.013 2.52 54.593 2.52 54.173C2.52 50.141 2.667 44.366 2.961 36.848C3.297 29.288 3.696 24.626 4.158 22.862C4.83 20.342 6.153 19.082 8.127 19.082C10.101 19.082 11.55 20.342 12.474 22.862C12.978 24.206 13.755 27.125 14.805 31.619C15.897 36.071 16.926 39.998 17.892 43.4C18.858 46.76 19.593 48.44 20.097 48.44C20.643 48.44 21.084 46.844 21.42 43.652C22.848 32.228 23.772 25.928 24.192 24.752C24.57 23.576 25.053 22.652 25.641 21.98C26.271 21.308 27.174 20.972 28.35 20.972C30.366 20.972 31.815 22.232 32.697 24.752C33.033 25.592 33.369 28.259 33.705 32.753C34.041 37.247 34.461 41.405 34.965 45.227C35.469 49.049 36.12 50.96 36.918 50.96Z" fill="#F7C873"/>
<path d="M41.41 54.1C40.15 54.1 39.52 53.47 39.52 52.21C39.52 50.95 40.15 50.32 41.41 50.32C48.046 50.32 52.645 50.824 55.207 51.832C57.769 52.84 59.05 54.436 59.05 56.62C59.05 57.628 58.42 59.623 57.16 62.605C55.9 65.545 55.27 67.813 55.27 69.409C55.27 70.963 55.837 72.664 56.971 74.512C58.147 76.402 59.302 78.25 60.436 80.056C61.612 81.904 62.2 83.584 62.2 85.096C62.2 87.448 61.381 89.296 59.743 90.64C58.147 91.984 55.942 92.656 53.128 92.656C50.356 92.656 48.025 91.9 46.135 90.388C44.245 88.918 43.3 87.175 43.3 85.159C43.3 83.143 44.077 81.547 45.631 80.371C47.227 79.237 48.55 78.67 49.6 78.67C50.86 78.67 51.49 79.3 51.49 80.56C51.49 80.98 50.734 81.652 49.222 82.576C49.012 82.702 48.865 82.786 48.781 82.828C48.697 82.87 48.571 82.954 48.403 83.08C48.235 83.206 48.109 83.29 48.025 83.332C47.983 83.416 47.878 83.521 47.71 83.647C47.584 83.773 47.5 83.878 47.458 83.962C47.416 84.046 47.353 84.151 47.269 84.277C47.143 84.445 47.08 84.718 47.08 85.096C47.08 86.104 47.626 86.986 48.718 87.742C49.852 88.498 51.406 88.876 53.38 88.876C56.74 88.876 58.42 87.637 58.42 85.159C58.42 84.277 57.832 82.954 56.656 81.19C55.522 79.468 54.367 77.515 53.191 75.331C52.057 73.189 51.49 71.152 51.49 69.22C51.49 67.246 52.12 64.747 53.38 61.723C54.64 58.699 55.27 56.998 55.27 56.62C55.27 54.94 50.65 54.1 41.41 54.1Z" fill="#F7C873"/>
<path d="M12.778 54.152C13.1833 54.152 13.6013 54.342 14.032 54.722C14.4627 55.0767 14.678 55.4567 14.678 55.862C14.678 56.242 14.5007 56.5333 14.146 56.736C13.8167 56.9387 13.4493 57.04 13.044 57.04C12.6387 57.04 12.2967 56.8627 12.018 56.508C11.7647 56.128 11.638 55.7227 11.638 55.292C11.638 54.532 12.018 54.152 12.778 54.152ZM9.358 68.288C7.93933 69.808 6.49533 70.8973 5.026 71.556C4.57 71.7587 4.20267 71.86 3.924 71.86C3.164 71.86 2.784 71.48 2.784 70.72C2.784 70.2387 3.164 69.846 3.924 69.542C4.32933 69.39 4.86133 69.086 5.52 68.63C6.204 68.174 6.66 67.832 6.888 67.604C7.116 67.376 7.50867 66.958 8.066 66.35C8.64867 65.742 9.10467 65.286 9.434 64.982C9.76333 64.6527 10.2067 64.3233 10.764 63.994C11.3467 63.6647 11.8787 63.5 12.36 63.5C13.348 63.5 14.108 63.8547 14.64 64.564C15.172 65.2733 15.4887 66.0587 15.59 66.92C15.8687 69.2 16.312 70.34 16.92 70.34C17.4013 70.34 18.022 70.2133 18.782 69.96C19.542 69.7067 19.96 69.58 20.036 69.58C20.796 69.58 21.176 69.96 21.176 70.72C21.176 71.2773 20.796 71.6827 20.036 71.936C18.668 72.392 17.5533 72.62 16.692 72.62C15.856 72.62 15.172 72.2653 14.64 71.556C14.108 70.8467 13.7913 70.0613 13.69 69.2C13.4113 66.92 12.968 65.78 12.36 65.78C12.0307 65.78 11.6507 65.9953 11.22 66.426C10.8147 66.8313 10.4853 67.1607 10.232 67.414C9.97867 67.642 9.68733 67.9333 9.358 68.288ZM42.643 71.936C41.275 72.392 40.211 72.62 39.451 72.62C38.691 72.62 38.0957 72.3413 37.665 71.784C37.2344 71.2267 36.8417 70.2767 36.487 68.934C36.1577 67.5913 35.9044 66.92 35.727 66.92C35.0684 66.92 34.3717 67.9333 33.637 69.96C33.3584 70.72 32.9024 71.4167 32.269 72.05C31.6357 72.6833 30.8377 73 29.875 73C28.9377 73 28.203 72.582 27.671 71.746C27.139 70.91 26.8224 69.998 26.721 69.01C26.645 68.022 26.5184 67.11 26.341 66.274C26.1637 65.438 25.8724 65.02 25.467 65.02C25.1884 65.02 24.9857 65.096 24.859 65.248C24.7324 65.4 24.6184 65.552 24.517 65.704C24.441 65.8307 24.3524 65.97 24.251 66.122C24.175 66.2487 24.0737 66.426 23.947 66.654C23.8457 66.882 23.719 67.1227 23.567 67.376C23.0604 68.2627 22.655 68.9213 22.351 69.352C21.743 70.3147 20.8437 71.0493 19.653 71.556C19.197 71.7587 18.8297 71.86 18.551 71.86C17.791 71.86 17.411 71.48 17.411 70.72C17.411 70.2387 17.8164 69.846 18.627 69.542C19.4377 69.238 20.0077 68.8073 20.337 68.25C20.6917 67.6673 21.0844 67.0087 21.515 66.274C21.9457 65.5393 22.237 65.0453 22.389 64.792C22.5664 64.5387 22.7817 64.2347 23.035 63.88C23.2884 63.5 23.5164 63.2593 23.719 63.158C24.251 62.8793 24.8337 62.74 25.467 62.74C26.5057 62.74 27.291 63.158 27.823 63.994C28.355 64.83 28.659 65.742 28.735 66.73C28.8364 67.718 28.9757 68.63 29.153 69.466C29.3304 70.302 29.6217 70.72 30.027 70.72C30.4324 70.72 30.8124 70.4033 31.167 69.77C31.547 69.1367 31.8764 68.44 32.155 67.68C32.4337 66.92 32.877 66.2233 33.485 65.59C34.1184 64.9567 34.8657 64.64 35.727 64.64C36.3857 64.64 36.867 64.8047 37.171 65.134C37.475 65.438 37.6904 65.6787 37.817 65.856C37.969 66.0333 38.0957 66.2993 38.197 66.654C38.3237 67.0087 38.4124 67.2747 38.463 67.452C38.5137 67.604 38.5897 67.8827 38.691 68.288C38.995 69.6813 39.2737 70.3653 39.527 70.34C40.0084 70.34 40.629 70.2133 41.389 69.96C42.149 69.7067 42.567 69.58 42.643 69.58C43.403 69.58 43.783 69.96 43.783 70.72C43.783 71.2773 43.403 71.6827 42.643 71.936Z" fill="#F7C873"/>
</svg>
