<svg width="20" height="20" viewBox="0 0 20 20" fill="none" xmlns="http://www.w3.org/2000/svg">
<path d="M13 8.5C13 9.42826 12.6313 10.3185 11.9749 10.9749C11.3185 11.6313 10.4283 12 9.5 12C8.57174 12 7.6815 11.6313 7.02513 10.9749C6.36875 10.3185 6 9.42826 6 8.5C6 7.57174 6.36875 6.6815 7.02513 6.02513C7.6815 5.36875 8.57174 5 9.5 5C10.4283 5 11.3185 5.36875 11.9749 6.02513C12.6313 6.6815 13 7.57174 13 8.5Z" fill="#434343"/>
<path fill-rule="evenodd" clip-rule="evenodd" d="M1 10.5C1 8.24566 1.89553 6.08365 3.48959 4.48959C5.08365 2.89553 7.24566 2 9.5 2C11.7543 2 13.9163 2.89553 15.5104 4.48959C17.1045 6.08365 18 8.24566 18 10.5C18 12.7543 17.1045 14.9163 15.5104 16.5104C13.9163 18.1045 11.7543 19 9.5 19C7.24566 19 5.08365 18.1045 3.48959 16.5104C1.89553 14.9163 1 12.7543 1 10.5ZM9.5 3.0625C8.09939 3.06257 6.72726 3.45814 5.54155 4.20365C4.35584 4.94917 3.40474 6.01435 2.79771 7.27658C2.19069 8.53881 1.95241 9.9468 2.11031 11.3385C2.26821 12.7302 2.81587 14.049 3.69025 15.1431C4.44463 13.9276 6.10531 12.625 9.5 12.625C12.8947 12.625 14.5543 13.9266 15.3098 15.1431C16.1841 14.049 16.7318 12.7302 16.8897 11.3385C17.0476 9.9468 16.8093 8.53881 16.2023 7.27658C15.5953 6.01435 14.6442 4.94917 13.4584 4.20365C12.2727 3.45814 10.9006 3.06257 9.5 3.0625Z" fill="#434343"/>
</svg>
